# xmcd
# 
# Track frame offsets:
#     150
#     15086
#     24480
#     34756
#     46732
#     64024
#     73848
#     92569
#     109180
#     120753
# 
# Disc length: 1731
# 
# Revision: 1
# Processed by: cddbd v1.5.2PL0 Copyright (c) Steve Scherf et al.
# Submitted via: fre:ac v1.1beta1pre4
# 
DISCID=6e06c10a
DTITLE=Roy Book Binder - The Good Book
DYEAR=2013
DGENRE=Blues
TTITLE0=The Good Book
TTITLE1=It Could've Been Worse
TTITLE2=Step Right Up
TTITLE3=A Full Go Around
TTITLE4=Poker Playin' Papa
TTITLE5=Crazy About You
TTITLE6=What You Gonna Do
TTITLE7=They Called Him Junior
TTITLE8=Electric Cigarette Blues
TTITLE9=Hacksaw
EXTD=
EXTT0=
EXTT1=
EXTT2=
EXTT3=
EXTT4=
EXTT5=
EXTT6=
EXTT7=
EXTT8=
EXTT9=
PLAYORDER=
